<?xml version="1.0" encoding="utf-8"?>
<svg xmlns="http://www.w3.org/2000/svg" viewBox="-0.0002 -0.0002 152.0586 151.7771" width="152.059px" height="151.777px" preserveAspectRatio="none"><g id="object-2" transform="matrix(1, 0, 0, 1, 1.4210854715202004e-14, 7.105427357601002e-15)"><title>Badge</title><path d="M 72.427 1.718 C 74.282 -0.573 77.776 -0.573 79.632 1.718 L 81.854 4.46 C 83.418 6.39 86.226 6.745 88.221 5.264 L 91.055 3.161 C 93.422 1.404 96.806 2.273 98.034 4.953 L 99.505 8.162 C 100.54 10.42 103.171 11.462 105.471 10.524 L 108.74 9.191 C 111.47 8.078 114.531 9.761 115.054 12.663 L 115.68 16.136 C 116.121 18.581 118.41 20.245 120.872 19.908 L 124.369 19.43 C 127.29 19.031 129.837 21.423 129.622 24.363 L 129.364 27.883 C 129.183 30.361 130.987 32.541 133.455 32.828 L 136.961 33.235 C 139.889 33.574 141.762 36.524 140.822 39.318 L 139.697 42.664 C 138.906 45.019 140.11 47.58 142.43 48.471 L 145.725 49.737 C 148.476 50.794 149.556 54.117 147.951 56.59 L 146.03 59.551 C 144.677 61.635 145.207 64.414 147.232 65.854 L 150.109 67.9 C 152.511 69.608 152.73 73.095 150.561 75.091 L 147.964 77.481 C 146.135 79.163 145.958 81.987 147.561 83.886 L 149.838 86.582 C 151.74 88.834 151.086 92.266 148.488 93.66 L 145.378 95.329 C 143.189 96.504 142.314 99.195 143.395 101.432 L 144.93 104.61 C 146.212 107.265 144.725 110.426 141.862 111.13 L 138.434 111.973 C 136.022 112.567 134.506 114.956 134.996 117.391 L 135.692 120.852 C 136.274 123.742 134.047 126.434 131.099 126.404 L 127.57 126.368 C 125.086 126.343 123.023 128.28 122.892 130.761 L 122.706 134.286 C 122.551 137.23 119.724 139.283 116.877 138.521 L 113.467 137.609 C 111.067 136.966 108.587 138.33 107.843 140.7 L 106.787 144.068 C 105.904 146.881 102.656 148.167 100.087 146.721 L 97.011 144.989 C 94.847 143.77 92.106 144.474 90.796 146.585 L 88.935 149.584 C 87.381 152.089 83.915 152.527 81.786 150.487 L 79.238 148.045 C 77.444 146.326 74.614 146.326 72.821 148.045 L 70.272 150.487 C 68.144 152.527 64.678 152.089 63.124 149.584 L 61.262 146.585 C 59.953 144.474 57.212 143.77 55.047 144.989 L 51.971 146.721 C 49.403 148.167 46.154 146.881 45.272 144.068 L 44.215 140.7 C 43.471 138.33 40.992 136.966 38.592 137.609 L 35.182 138.521 C 32.334 139.283 29.508 137.23 29.352 134.286 L 29.167 130.761 C 29.036 128.28 26.973 126.343 24.489 126.368 L 20.959 126.404 C 18.011 126.434 15.784 123.742 16.366 120.852 L 17.063 117.391 C 17.553 114.956 16.037 112.567 13.624 111.973 L 10.197 111.13 C 7.334 110.426 5.846 107.265 7.129 104.61 L 8.664 101.432 C 9.744 99.195 8.87 96.504 6.681 95.329 L 3.57 93.66 C 0.973 92.266 0.318 88.834 2.22 86.582 L 4.498 83.886 C 6.101 81.987 5.923 79.163 4.095 77.481 L 1.497 75.091 C -0.672 73.095 -0.453 69.608 1.95 67.9 L 4.826 65.854 C 6.851 64.414 7.381 61.635 6.029 59.551 L 4.107 56.59 C 2.503 54.117 3.582 50.794 6.334 49.737 L 9.629 48.471 C 11.948 47.58 13.153 45.019 12.361 42.664 L 11.236 39.318 C 10.297 36.524 12.169 33.574 15.097 33.235 L 18.604 32.828 C 21.071 32.541 22.875 30.361 22.694 27.883 L 22.437 24.363 C 22.222 21.423 24.769 19.031 27.689 19.43 L 31.187 19.908 C 33.648 20.245 35.937 18.581 36.378 16.136 L 37.004 12.663 C 37.527 9.761 40.589 8.078 43.319 9.191 L 46.587 10.524 C 48.888 11.462 51.519 10.42 52.554 8.162 L 54.024 4.953 C 55.252 2.273 58.636 1.404 61.003 3.161 L 63.838 5.264 C 65.833 6.745 68.64 6.39 70.204 4.46 L 72.427 1.718 Z" fill="white" style="stroke-width: 1;" id="object-1"><title>canvas</title></path><text style="font-family: Futura; font-size: 12.2px; font-weight: 700; paint-order: fill; stroke-miterlimit: 1; stroke-opacity: 0; stroke-width: 0px; text-transform: uppercase; white-space: pre; transform-box: fill-box; transform-origin: 49.3139% 49.3424%;" transform="matrix(0.987688, 0.156434, -0.156434, 0.987688, 0.000005, -0.000002)" id="object-0"><textPath href="#path-1">Active Development ✹ Active Development ✹</textPath></text><path d="M 128 76 A 52 52 0 0 1 76 128 A 52 52 0 0 1 24 76 A 52 52 0 0 1 76 24 A 52 52 0 0 1 128 76 Z" style="stroke: rgb(0, 0, 0); paint-order: fill; fill-opacity: 0.43; stroke-width: 0.1px; visibility: hidden; fill: rgb(255, 0, 0);" id="path-1"><title>text path</title></path><path fill-rule="evenodd" clip-rule="evenodd" d="M 63.916 71.343 C 63.869 71.627 63.833 71.888 63.807 72.119 C 63.59 72.186 63.354 72.274 63.117 72.393 C 62.614 72.646 62.07 73.043 61.654 73.667 C 61.233 74.298 61 75.08 61 76 C 61 76.92 61.233 77.7 61.654 78.333 C 62.07 78.957 62.614 79.354 63.117 79.606 C 63.354 79.724 63.59 79.814 63.807 79.881 C 63.833 80.111 63.869 80.372 63.916 80.656 C 64.101 81.768 64.474 83.271 65.234 84.791 C 65.998 86.318 67.162 87.884 68.937 89.067 C 70.719 90.254 73.034 91 76 91 C 78.966 91 81.28 90.254 83.062 89.067 C 84.837 87.884 86.002 86.318 86.764 84.791 C 87.524 83.271 87.898 81.768 88.083 80.656 C 88.131 80.372 88.167 80.111 88.192 79.881 C 88.41 79.814 88.643 79.724 88.882 79.606 C 89.384 79.354 89.93 78.957 90.344 78.333 C 90.766 77.7 91 76.92 91 76 C 91 75.08 90.766 74.298 90.344 73.667 C 89.93 73.043 89.384 72.646 88.882 72.393 C 88.643 72.274 88.41 72.186 88.192 72.119 C 88.167 71.888 88.131 71.627 88.083 71.343 C 87.898 70.232 87.524 68.728 86.764 67.209 C 86.002 65.682 84.837 64.116 83.062 62.933 C 81.28 61.744 78.966 61 76 61 C 73.034 61 70.719 61.744 68.937 62.933 C 67.162 64.116 65.998 65.682 65.234 67.209 C 64.474 68.728 64.101 70.232 63.916 71.343 Z M 85.412 80.091 L 66.587 80.091 C 66.736 81.034 67.044 82.313 67.673 83.572 C 68.274 84.773 69.154 85.934 70.449 86.798 C 71.734 87.653 73.511 88.272 76 88.272 C 78.489 88.272 80.264 87.653 81.55 86.798 C 82.844 85.934 83.724 84.773 84.324 83.572 C 84.954 82.313 85.263 81.034 85.412 80.091 Z M 85.412 71.909 L 84.182 71.909 C 83.428 71.909 82.818 72.519 82.818 73.272 C 82.818 74.026 83.428 74.637 84.182 74.637 L 86.909 74.637 C 87.329 74.652 87.831 74.812 88.074 75.179 C 88.164 75.314 88.272 75.557 88.272 76 C 88.272 76.443 88.164 76.684 88.074 76.82 C 87.831 77.188 87.329 77.348 86.909 77.363 L 65.091 77.363 C 64.67 77.348 64.169 77.188 63.923 76.82 C 63.833 76.684 63.728 76.443 63.728 76 C 63.728 75.557 63.833 75.314 63.923 75.179 C 64.169 74.812 64.67 74.652 65.091 74.637 L 67.818 74.637 C 68.571 74.637 69.182 74.026 69.182 73.272 C 69.182 72.519 68.571 71.909 67.818 71.909 L 66.587 71.909 C 66.736 70.966 67.044 69.687 67.673 68.428 C 68.274 67.227 69.154 66.066 70.449 65.202 C 70.878 64.917 71.362 64.658 71.909 64.438 L 71.909 67.818 C 71.909 68.571 72.519 69.182 73.272 69.182 C 74.026 69.182 74.637 68.571 74.637 67.818 L 74.637 63.792 C 75.064 63.75 75.519 63.728 76 63.728 C 76.48 63.728 76.934 63.75 77.363 63.792 L 77.363 67.818 C 77.363 68.571 77.973 69.182 78.728 69.182 C 79.48 69.182 80.091 68.571 80.091 67.818 L 80.091 64.438 C 80.637 64.658 81.12 64.917 81.55 65.202 C 82.844 66.066 83.724 67.227 84.324 68.428 C 84.954 69.687 85.263 70.966 85.412 71.909 Z" fill="#0F0F0F" style="stroke-width: 1;" id="object-3"><title>icon</title></path></g></svg>